<?xml version="1.0" encoding="UTF-8"?>
<svg id="Camada_2" data-name="Camada 2" xmlns="http://www.w3.org/2000/svg" viewBox="0 0 24.15 27.11">
  <defs>
    <style>
      .cls-1 {
        opacity: .5;
      }
    </style>
  </defs>
  <g id="Camada_1-2" data-name="Camada 1">
    <path class="cls-1" d="M24.15,26.6V9.27c0-.92-.45-1.77-1.21-2.29L13.53.5c-.97-.67-2.25-.67-3.22,0L1.2,6.77c-.75.52-1.2,1.37-1.2,2.28v17.55c0,.28.23.51.51.51h7.15c.28,0,.52-.23.51-.52v-5.16c-.01-1.17.93-2.12,2.1-2.13l3.07-.02c1.24,0,2.24.99,2.25,2.22v5.09c0,.28.24.51.52.51h7.51c.28,0,.51-.23.51-.51Z"/>
  </g>
</svg>