<svg width="34" height="33" viewBox="0 0 34 33" fill="none" xmlns="http://www.w3.org/2000/svg">
<rect x="0.5" y="0.5" width="32.8919" height="32" rx="7.5" fill="#BC5006" stroke="#bc5006"/>
<g clip-path="url(#clip0_3074_44)">
<path d="M9.57412 31.3644C8.06243 31.0314 6.98097 30.3234 6.64852 28.8768C6.31606 27.4282 6.7815 24.8622 7.13351 23.4174C7.96074 20.0171 9.0285 16.9995 10.9626 14.0373C11.5141 13.1934 12.3394 12.0549 13.2037 11.5019C14.0681 10.9489 15.6287 10.9603 16.5694 11.3813C17.5589 11.8253 18.1593 13.0805 18.5973 14.0373C20.4649 18.1189 21.4956 21.8847 22.4558 26.2437C22.7041 27.3727 22.9603 29.7627 22.0509 30.731C20.7857 32.0781 10.9274 31.661 9.57608 31.3644H9.57412Z" fill="#F6E9CD" stroke="#DAB28D" stroke-miterlimit="10"/>
<path d="M18.4372 31.2875C17.3342 31.0693 16.5441 30.6082 16.3016 29.661C16.0591 28.7138 16.3994 27.0356 16.6556 26.0903C17.2599 23.8668 18.0382 21.892 19.4521 19.9555C19.855 19.4044 20.4573 18.6582 21.089 18.2965C21.7206 17.9348 22.8588 17.9425 23.5472 18.218C24.2708 18.5089 24.7088 19.3298 25.0276 19.9555C26.3926 22.6249 27.1436 25.0876 27.8456 27.9388C28.0275 28.6774 28.2133 30.2408 27.5484 30.8742C26.6234 31.7544 19.4228 31.4827 18.4372 31.2875Z" fill="#F6E9CD" stroke="#DAB28D" stroke-miterlimit="10"/>
</g>
<defs>
<clipPath id="clip0_3074_44">
<rect width="24.5504" height="31" fill="white" transform="translate(5 1)"/>
</clipPath>
</defs>
</svg>
