<svg width="34" height="33" viewBox="0 0 34 33" fill="none" xmlns="http://www.w3.org/2000/svg">
<rect x="0.5" y="0.5" width="32.8919" height="32" rx="7.5" fill="#DAB28D" stroke="#DAB28D"/>
<g clip-path="url(#clip0_3074_53)">
<path d="M11.6135 31.7545C11.892 21.4713 12.3952 13.7771 12.7371 10.7068C12.7957 10.1914 12.9838 8.11277 14.359 6.29549C15.3971 4.92276 16.4889 4.09961 18.2354 4.09961C19.271 4.09961 21.2544 5.01802 21.9041 6.55929C22.4342 7.81233 22.654 9.18751 22.8225 11.2271C23.1987 15.7947 23.0961 20.3916 23.1108 24.9739C23.1156 26.5323 23.1474 28.843 23.2744 31.6715C19.3883 31.6983 15.4997 31.7252 11.6135 31.7521V31.7545Z" fill="#F6E9CD" stroke="#BC5006" stroke-miterlimit="10"/>
<path d="M12.913 19.5884C12.4782 19.989 11.7332 19.8131 11.3326 19.3808C10.932 18.9485 10.7855 18.3427 10.6536 17.7662C10.3409 16.3886 10.0258 15.0086 9.71319 13.631C9.56175 12.9641 9.29063 12.1727 8.62136 12.0311C8.12307 11.9236 7.62478 12.2582 7.31458 12.6613C6.65264 13.521 6.55005 14.6764 6.55005 15.7609C6.55005 16.9309 6.64287 18.1009 6.82362 19.2562C7.03124 20.5801 7.43671 22.0066 8.54075 22.7687C9.232 23.245 10.0942 23.3842 10.9247 23.5112C11.6575 23.6236 12.3878 23.7359 13.1206 23.8458" fill="#F6E9CD"/>
<path d="M12.913 19.5884C12.4782 19.989 11.7332 19.8131 11.3326 19.3808C10.932 18.9485 10.7855 18.3427 10.6536 17.7662C10.3409 16.3886 10.0258 15.0086 9.71319 13.631C9.56175 12.9641 9.29063 12.1727 8.62136 12.0311C8.12307 11.9236 7.62478 12.2582 7.31458 12.6613C6.65264 13.521 6.55005 14.6764 6.55005 15.7609C6.55005 16.9309 6.64287 18.1009 6.82362 19.2562C7.03124 20.5801 7.43671 22.0066 8.54075 22.7687C9.232 23.245 10.0942 23.3842 10.9247 23.5112C11.6575 23.6236 12.3878 23.7359 13.1206 23.8458" stroke="#BC5006" stroke-miterlimit="10"/>
<path d="M21.8873 15.2398C22.3221 15.6404 23.0671 15.4645 23.4677 15.0322C23.8682 14.5998 24.0148 13.9941 24.1467 13.4176C24.4593 12.04 24.7744 10.6599 25.0871 9.28232C25.2385 8.6155 25.5097 7.8241 26.1789 7.68243C26.6772 7.57496 27.1755 7.90959 27.4857 8.31262C28.1476 9.17241 28.2502 10.3277 28.2502 11.4123C28.2502 12.5823 28.1574 13.7522 27.9767 14.9076C27.769 16.2315 27.3636 17.6579 26.2595 18.42C25.5683 18.8963 24.706 19.0356 23.8756 19.1626C23.1428 19.2749 22.4125 19.3873 21.6797 19.4972" fill="#F6E9CD"/>
<path d="M21.8873 15.2398C22.3221 15.6404 23.0671 15.4645 23.4677 15.0322C23.8682 14.5998 24.0148 13.9941 24.1467 13.4176C24.4593 12.04 24.7744 10.6599 25.0871 9.28232C25.2385 8.6155 25.5097 7.8241 26.1789 7.68243C26.6772 7.57496 27.1755 7.90959 27.4857 8.31262C28.1476 9.17241 28.2502 10.3277 28.2502 11.4123C28.2502 12.5823 28.1574 13.7522 27.9767 14.9076C27.769 16.2315 27.3636 17.6579 26.2595 18.42C25.5683 18.8963 24.706 19.0356 23.8756 19.1626C23.1428 19.2749 22.4125 19.3873 21.6797 19.4972" stroke="#BC5006" stroke-miterlimit="10"/>
</g>
<defs>
<clipPath id="clip0_3074_53">
<rect width="24.5504" height="31" fill="white" transform="translate(5 1)"/>
</clipPath>
</defs>
</svg>
