<svg width="34" height="33" viewBox="0 0 34 33" fill="none" xmlns="http://www.w3.org/2000/svg">
<rect x="0.5" y="0.5" width="32.8919" height="32" rx="7.5" fill="#395300" stroke="#395300"/>
<g clip-path="url(#clip0_3074_73)">
<path d="M14.9585 18.0957C15.4122 21.3081 15.5225 24.5527 15.2896 27.7811C15.2242 28.6874 15.1322 29.5978 15.216 30.5041C15.2385 30.7418 15.2753 30.9854 15.4203 31.1929C15.8413 31.785 16.8713 31.7649 17.6949 31.6682C17.9994 31.6319 18.3468 31.5715 18.4878 31.346C18.5573 31.2352 18.5593 31.1063 18.5593 30.9814C18.592 26.7399 18.6267 22.4963 18.6594 18.2548" fill="#F6E9CD"/>
<path d="M14.9585 18.0957C15.4122 21.3081 15.5225 24.5527 15.2896 27.7811C15.2242 28.6874 15.1322 29.5978 15.216 30.5041C15.2385 30.7418 15.2753 30.9854 15.4203 31.1929C15.8413 31.785 16.8713 31.7649 17.6949 31.6682C17.9994 31.6319 18.3468 31.5715 18.4878 31.346C18.5573 31.2352 18.5593 31.1063 18.5593 30.9814C18.592 26.7399 18.6267 22.4963 18.6594 18.2548" stroke="#678027" stroke-miterlimit="10"/>
<path d="M17.4287 24.9328C17.9968 25.1 18.6406 25.0315 19.1535 24.7536C19.8831 24.3568 20.2816 23.6056 20.9069 23.0799C21.101 22.9168 21.3258 22.7718 21.5854 22.7295C21.8449 22.6872 22.1412 22.7698 22.2782 22.9752C22.4233 23.1947 22.3558 23.4767 22.2557 23.7184C21.6038 25.3075 19.7318 26.4031 17.8824 26.2762" fill="#F6E9CD"/>
<path d="M17.4287 24.9328C17.9968 25.1 18.6406 25.0315 19.1535 24.7536C19.8831 24.3568 20.2816 23.6056 20.9069 23.0799C21.101 22.9168 21.3258 22.7718 21.5854 22.7295C21.8449 22.6872 22.1412 22.7698 22.2782 22.9752C22.4233 23.1947 22.3558 23.4767 22.2557 23.7184C21.6038 25.3075 19.7318 26.4031 17.8824 26.2762" stroke="#678027" stroke-miterlimit="10" stroke-linecap="round"/>
<path d="M19.7116 22.3654C20.1224 22.2728 20.5454 22.2567 20.9643 22.311C22.2436 22.4802 24.0277 22.6474 25.1496 21.8116C26.4371 20.8529 27.0052 19.1833 26.5352 17.7432C26.4555 17.4995 26.3471 17.2478 26.4023 16.998C26.4534 16.7684 26.6333 16.5832 26.7906 16.3979C28.5297 14.3496 27.7961 10.9963 25.3233 9.69117C25.6237 7.7859 23.807 5.94307 21.6959 5.60673C19.5829 5.26837 17.3962 6.19885 15.9555 7.62679C13.8955 7.0528 11.5045 7.57846 9.97592 8.94397C8.44731 10.3095 7.85058 12.4524 8.48205 14.3013C6.8717 15.1008 6.01544 16.8953 6.32402 18.5227C6.6326 20.15 8.00385 21.5437 9.70821 22.168C11.4126 22.7924 13.3949 22.6856 15.0338 22.0331C16.1455 22.7763 17.6476 22.8729 18.9841 22.5426C19.2845 22.4681 19.5236 22.4117 19.7116 22.3694V22.3654Z" fill="#F6E9CD" stroke="#678027" stroke-miterlimit="10"/>
<path d="M22.1844 23.3256C22.1517 23.2692 22.0802 23.2471 22.023 23.2733C21.6388 23.4505 21.1545 23.3961 20.7784 23.1947C20.3677 22.9752 20.0734 22.6046 19.8527 22.2139C19.5768 21.7245 19.399 21.1727 19.4481 20.6208C19.4971 20.069 19.8016 19.5212 20.3125 19.2432C20.7396 19.0096 21.3118 19.0035 21.7246 19.2452C21.8513 19.3197 22.0066 19.2754 22.0823 19.1465C22.5298 18.3873 23.3697 17.8334 24.2914 17.7146C24.7655 17.6521 25.2784 17.7085 25.6626 17.9744C25.9794 18.1939 26.1756 18.5826 26.1224 18.9371C26.102 19.072 26.1756 19.2009 26.2982 19.2493C26.6476 19.3822 26.9848 19.5473 27.2566 19.791C27.5918 20.0911 27.8105 20.5342 27.7246 20.9592C27.6388 21.3861 27.2852 21.6963 26.8929 21.9521C26.7743 22.0286 26.7519 22.1998 26.8459 22.3086C26.9624 22.4435 27.0073 22.6469 26.9521 22.8181C26.8602 23.096 26.5925 23.2894 26.3268 23.4404C24.8575 24.2823 22.8282 24.3991 22.1844 23.3256Z" fill="#F6E9CD" stroke="#678027" stroke-miterlimit="10"/>
</g>
<defs>
<clipPath id="clip0_3074_73">
<rect width="24.5504" height="31" fill="white" transform="translate(5 1)"/>
</clipPath>
</defs>
</svg>
