<svg width="34" height="33" viewBox="0 0 34 33" fill="none" xmlns="http://www.w3.org/2000/svg">
<rect x="0.5" y="0.5" width="32.8919" height="32" rx="7.5" fill="#e4d25d" stroke="#e4d25d"/>
<path d="M16.0466 17.9729C16.281 21.2994 16.3384 24.6618 16.2188 28.0051C16.1853 28.9449 16.1375 29.8871 16.1806 30.8246C16.1925 31.0709 16.2116 31.3244 16.2858 31.5372C16.5034 32.1519 17.0343 32.1303 17.46 32.0299C17.6179 31.994 17.7972 31.9294 17.869 31.6975C17.9048 31.5827 17.9048 31.4488 17.9072 31.3196C17.924 26.9265 17.9431 22.5334 17.9598 18.1379" fill="#F6E9CD"/>
<path d="M26.9827 27.5138C26.1074 28.6522 24.804 29.2644 23.4576 29.2716L17.3018 29.3003H16.704L10.5482 29.2716C9.20179 29.2644 7.89602 28.6522 7.02073 27.5138C5.91346 26.0718 5.60496 24.0725 6.607 21.9011C7.21923 20.5762 8.34802 19.5335 9.65857 19.237C8.81676 17.6395 8.35519 15.7 8.8048 13.9184C9.2544 12.1391 10.7921 10.6421 12.4495 10.7903C11.8946 9.16892 12.0907 7.25097 12.9565 5.80652C13.6691 4.61797 15.5536 3.65182 16.9981 3.71399H17.0029C18.4474 3.65182 20.3319 4.61797 21.0446 5.80652C21.9127 7.25097 22.1064 9.16892 21.5516 10.7903C23.2089 10.6421 24.7442 12.1367 25.1962 13.9184C25.6458 15.7 25.1867 17.6419 24.3448 19.237C25.653 19.5335 26.7842 20.5762 27.394 21.9011C28.3937 24.0749 28.0876 26.0718 26.9803 27.5138H26.9827Z" fill="#F6E9CD" stroke="#C7CE30" stroke-miterlimit="10"/>
</svg>
