<?xml version="1.0" encoding="UTF-8"?>
<svg id="Camada_1" xmlns="http://www.w3.org/2000/svg" version="1.1" viewBox="0 0 971 254.4">
  <!-- Generator: Adobe Illustrator 29.5.1, SVG Export Plug-In . SVG Version: 2.1.0 Build 141)  -->
  <defs>
    <style>
      .st0 {
        fill: #d27236;
      }

      .st1 {
        fill: #fff;
      }
    </style>
  </defs>
  <circle class="st0" cx="582.1" cy="128.9" r="116.5"/>
  <circle class="st0" cx="844.1" cy="128.9" r="116.5"/>
  <g>
    <path class="st1" d="M971,123.6c0,2.3,0,4.8,0,7.2-3.8,99.8-115.9,157.9-199.2,100.5-75.4-52-71.9-165,6.2-212.5,83.5-50.8,189.8,8.4,193,104.8h0ZM782.7,131.8c-3.9.4-8.3-.3-12.2,0-.3,2.9.5,19.6,2.4,20.9,6.3,0,12.9-1.9,19.2-.5,8.4,1.8,8.1,9.9.3,12.4-8.9,2.9-21.9-.4-24.9-10.1-27.5-.8-27.8,29.3-3.7,37.4,17,5.7,48.3,3.6,62.5-8.3,13.8-11.5,15.4-33.8-2.3-42.2-1.2-.6-2.8-.8-4-1.3-.6-.3-.9.2-.7-1,5.1-1.4,10.5-4.7,13-9.6.7-.5,4.5,4.4,5.5,5.3,15.4,14.1,41.9,15.9,61.2,10.3,7.7-2.2,15.1-6.3,20.9-11.7-.4,9.4,5.8,12.4,14.4,11.5,4.4-.5,9-5,9.3-9.4.7-9.4-10-12.7-17.2-9.3-.3-.3,2.6-4.6,3-5.4,8-16.7,7.2-41.4-3-57.1-13.4-20.8-41.1-24.5-63.7-19.5-25.2,5.6-39.8,24.7-39.9,50.5-11.1-7.2-25.6-8.4-38.6-7.7-15.3.9-39.1,8.3-36.1,27.9,1.8,11.5,18.4,13.9,27.7,11.8-4.3-11.1,19.2-13.3,21-5.4,1.7,7.4-8.6,10.2-14,10.7h0ZM881.4,155.8c-.3.2-.3,1.2-.8,1.3-2.9-1.5-8.3-2.6-10,1.2-1.2,2.7,1.4,5.6,4.3,4.3.6-.2.5-1.1.9-1.1,2.1-.4,8,3.2,9.9-1.1,1.5-3.4-2-6-4.3-4.6h0ZM865.6,176.7c-1.7-1.5,1.5-8.7-3.6-12-3.1-2-9.6-1.8-12.8-.2-4.5,2.3-4,8.1,1.7,7,1.5-.3,1.6-1.9,3.4-2,2,0,2.4,1.7,2.2,3.4-13.5-4.1-13.8,13.3-1.1,8.7.8-.3,2.2-1.6,2.7-1.5s1.2,1.4,2.1,1.8c2.3.9,6.1,0,6.7-2.6.8-3.4-.7-2.2-1.2-2.6h0ZM868.5,182.1h7.2c2-2.4-.8-10.8,2.2-12.2l1.9.3v11.3l.7.7h7.2c.7-.4.7-1,.7-1.6.3-2.6.3-9.4,0-12-.8-6.5-9.9-6.6-12.7-1.7-1.5-3.6-4.5-4-8-2.6.5,5.1-.6,11.3,0,16.3,0,.7,0,1.2.7,1.6h0ZM909.4,165.9c-4.8-4.8-17.8-3-19,4.4-1.5,9.7,5.7,13.6,14.4,11.5,7-1.7,9.5-11.1,4.6-15.9ZM930,165c-4.3-3.9-20-1.5-16.4,7,1.4,3.4,9.3,3,9.3,4.1-3,2.5-5.4-1.4-8.2-.5-1.6.5-2.2,1.8-1.9,3.4.9,5.1,20.3,5.2,18.1-4.7-1-4.6-10-3.7-10-4.9,2.7-2.5,5.5,1.5,8,.4,2-.9,2.6-3.2.9-4.8h0Z"/>
    <path class="st1" d="M575.6.6c102.9-6.4,171.1,105.4,116.4,193.4-50.3,81-170,79.2-217.6-3.5C427.7,109.5,482.4,6.4,575.6.6ZM592,129.8v49.4c-3-1.4-5.8-3.2-9.1-4.1-23-6-43.2,10.3-36,34.3-.4.4-3.1-1.4-3.8-1.7-8.5-2.6-18.7,4.4-15,13.5,4.6,11.3,23.6,7.9,22.6-4.6,11.1,13.5,36.8,13.2,46.7-1.5.7-1.1,2.9-5.8,3.2-6,.7-.4,3.2-.3,4.6-.7,3.6-1,7.4-4.8,7.9-8.6.6-.5,2.5,2.3,3.1,2.9,15.3,13.2,39,6.2,44.5-13.5,6.4-23-4.6-51.6-32.8-44.8-5,1.2-8.7,4.1-12.4,7.5v-15.8c10.1,4.2,24.1,3.5,33.5-2.2,1.8-1.1,3.1-2.8,5.1-3.6,5.6,10.4,22.1,11.2,28.8,1.4,2.7-3.9,2.9-7.9,3.6-12.4h-6.7v-33.8c0-7.2-6.8-16.6-12.8-20.3-14.5-8.9-61.6-10.7-58.2,15,.2,1.7,3.2,8.5,4.9,8.4.6,0,8.4-4.9,10.6-5.7,7-2.4,23.8-4.2,24.7,6.2-15.4,3.4-34,4.5-44.1,18.2v-26.1c-.6-2.8-1.6-5.9-4.3-7.2-7.3,0-15.6-.8-22.8-.3-9.7.8-14.1,5.8-10.3,15.3h9.6c-4.3,8.2-14.9,10.9-23.1,7.1-11.6-5.5-12.2-26.8-6.8-36.8,7.5-13.8,29.2-10.3,30.8,5.8,25.1,7.7,32.6-21.6,11.7-33.8-16.2-9.5-41.8-7.8-57.7,1.7-38.4,23.1-24,100.6,28,90.7,9.5-1.8,14-5.7,20.4-12.2.4-.4.4-.7,1.2-.5.8,6.1,3.8,11.1,10.4,11.9,2.1.2,10.6-.5,11.5.5l1.7,3.8c-4.5-.2-8.8,1-13,2.4h0Z"/>
    <path class="st1" d="M206.8,161.9h-10.3c-1.8,0-4.7-4.4-5.8-5.7-8.3,10.1-26.3,9.7-33.3-1.8s-5.3-34.3,8.8-39.4c8.1-3,16.6-1.2,22.8,4.8l-.9-16.7c4.4-1.2,13.2-3.1,16.8.7.5.6,1.9,3.7,1.9,4.3v53.9h0ZM178.8,126.6c-6.7,1.4-6.6,14.7-4.4,19.5,3.1,7,11.1,5,12.5-1.9.5-2.2.5-9.5.2-11.7-.6-3.9-4.3-6.7-8.3-5.9h0Z"/>
    <path class="st1" d="M64.8,114.5v32.8c0,3.4,5.3,6.4,8.2,3.4.4-.4,1.9-3.5,1.9-3.8v-32.3h19.7v47.4h-10.3c-2.1,0-5-5.1-5.8-5.2-4.2,3.9-9.8,6.8-15.7,6.7-9-.1-17.5-7.2-17.5-16.6v-32.3h19.7Z"/>
    <path class="st1" d="M148.7,161.9h-19.2v-31.9c0-.6-1.4-3.8-1.9-4.3-1.2-1-3.4-.9-4.8-.5-1.1.4-4.3,3.8-4.3,4.8v31.9h-19.7v-47.4h9.3c2.5,0,5.5,4.3,6.7,6.2,7.9-9.8,26.9-10.2,32.1,2.4.4,1,1.7,4.7,1.7,5.5v33.3h0Z"/>
    <path class="st1" d="M447.6,161.9h-19.7v-33.3c0-.7-1.7-3-2.4-3.3-2-.8-4.8,0-6.2,1.4-.6.6-2.4,4.2-2.4,4.8v30.4h-19.2v-47.4h8.9c3.3,0,5.5,4,7.2,6.2,7.5-9.6,26.4-10.1,31.8,1.8.5,1.2,2,6,2,7.1v32.3h0Z"/>
    <path class="st1" d="M259.5,150.9h3.8c.3,8.7-6.8,14.6-15.1,11.5-2.6-1-3.3-3.1-5.7-4.3-9.8,9.9-36.9,5.5-31-12.3,3.4-10.4,19.2-11.7,28.3-13.6.4-4.2-4.6-5.2-7.9-5.3-6-.1-11.2,2.4-16.5,4.8-9.6-16.7,13.3-19.2,24.7-18.2,9.2.8,19.4,7.2,19.4,17.5v19.9h0ZM239.9,141.8c-3.2.7-9.1,3-10.2,6.4-2.1,6.2,6,9.1,9.1,3.9.2-.3,1-2.2,1-2.3v-7.9h0Z"/>
    <path class="st1" d="M363,113.7c19-2.1,33.3,8.9,31.2,28.8-3,28.9-56.1,29.1-53.2-7.1.9-11.7,10.5-20.4,22-21.7h0ZM365.9,125.6c-6.5,1.5-6.1,18.8-2.9,23.3,3,4,8.7,2.7,10.4-1.8,2.3-5.9,2.6-23.8-7.6-21.4h0Z"/>
    <polygon class="st1" points="40.3 103.5 40.3 117.4 20.6 117.4 20.6 126.5 37.9 126.5 37.9 139.9 20.6 139.9 20.6 161.9 1 161.9 1 103.5 40.3 103.5"/>
    <path class="st1" d="M311.8,141.3c.2,17-13.9,24.3-29.4,20.9-23.4-5.1-24-39.6-1.6-47.3,6.7-2.3,16.2-2.1,22.6.9,11.6,5.4,10.8,19.8-3.7,17.8,1-9.1-10.7-11.3-14.6-3.8-1.8,3.6-1.9,12.6,0,16.1,4.1,7.3,16.9,3.8,15.9-4.6h10.6Z"/>
    <path class="st1" d="M336.3,114.5v47.4h-19.2v-47.4c6.2,1.7,13,1.7,19.2,0Z"/>
    <path class="st1" d="M323.7,91.2c7.3-1.1,14.7,2,14.8,10.2.1,9-8.7,13-16.5,10.4-10.4-3.5-9.2-19,1.7-20.6Z"/>
    <path class="st1" d="M383.8,92c-.8,8.9-8,16.3-16.7,18.1-3.4.7-8.7,2.1-8.3-2.9,5.8-2.4,6.7-9.7,5.3-15.2h19.7,0Z"/>
    <path class="st1" d="M877.8,71c4.1-.5,7.8,1.2,9.9,4.7,4.8,7.9,5.4,34.1-1.9,40.7-4,3.6-12,3.5-15.3-1-5.5-7.4-5.3-32.7,0-40.2,1.7-2.4,4.4-3.9,7.3-4.2h0Z"/>
    <path class="st1" d="M902.3,176.2c-4,2.7-3.9-6.4-2-7l1.7.2c1.3,2.1,1.2,4.7.3,6.9h0Z"/>
    <polygon class="st1" points="856.3 175.4 855.9 177.5 853.4 177.7 853.9 175.6 856.3 175.4"/>
    <path class="st1" d="M625.5,160.6c14.7-2.5,14.6,30.6,2.3,31.5-10.4.8-10.5-14.7-9.8-21.8.4-4.2,3-8.9,7.5-9.7Z"/>
    <path class="st1" d="M571.7,186.9c10.9-2.5,10.7,17.3,7.4,23.2-3,5.5-9.6,4.2-11.6-1.5-1.7-4.7-2.2-20.2,4.2-21.7h0Z"/>
    <path class="st1" d="M649.1,103v10.8c0,1.6-2,6.2-3.2,7.4-3.6,3.9-12.1,3.4-13.4-2.3-2.3-10,9.2-13.4,16.6-15.8h0Z"/>
  </g>
</svg>