<?xml version="1.0" encoding="UTF-8"?>
<svg id="Camada_1" data-name="Camada 1" xmlns="http://www.w3.org/2000/svg" viewBox="0 0 971.04 254.4">
  <defs>
    <style>
      .cls-1 {
        fill: #fff;
      }

      .cls-2 {
        fill: #fd3600;
      }
    </style>
  </defs>
  <circle class="cls-2" cx="582.11" cy="128.86" r="116.54"/>
  <circle class="cls-2" cx="844.12" cy="128.86" r="116.54"/>
  <g>
    <path class="cls-1" d="M970.98,123.61c.08,2.35.09,4.84,0,7.19-3.8,99.83-115.92,157.91-199.24,100.52-75.44-51.96-71.91-165,6.24-212.54,83.45-50.77,189.83,8.42,193,104.83ZM782.68,131.75c-3.9.36-8.28-.26-12.23,0-.28,2.94.45,19.58,2.38,20.86,6.33.03,12.87-1.91,19.24-.52,8.42,1.83,8.1,9.87.35,12.37-8.93,2.89-21.91-.42-24.89-10.14-27.47-.77-27.81,29.32-3.68,37.45,16.97,5.72,48.27,3.58,62.49-8.3,13.78-11.5,15.44-33.75-2.29-42.24-1.25-.6-2.83-.78-3.98-1.3-.56-.26-.87.23-.67-1,5.08-1.39,10.54-4.71,12.96-9.58.72-.5,4.55,4.41,5.49,5.28,15.36,14.12,41.87,15.95,61.18,10.29,7.66-2.25,15.09-6.26,20.87-11.73-.4,9.42,5.78,12.43,14.39,11.5,4.36-.47,9.02-4.96,9.32-9.41.65-9.4-10.01-12.73-17.23-9.27-.33-.35,2.58-4.63,2.96-5.42,7.95-16.73,7.15-41.45-2.95-57.11-13.38-20.75-41.13-24.54-63.73-19.54-25.21,5.58-39.85,24.71-39.91,50.46-11.13-7.18-25.63-8.44-38.63-7.69-15.26.89-39.13,8.3-36.08,27.93,1.79,11.52,18.41,13.91,27.71,11.85-4.31-11.12,19.19-13.26,21-5.4,1.72,7.43-8.57,10.17-14.05,10.68ZM881.36,155.81c-.27.17-.35,1.21-.79,1.26-2.93-1.5-8.34-2.64-9.98,1.16-1.18,2.73,1.44,5.56,4.34,4.33.56-.24.53-1.06.9-1.13,2.1-.36,8,3.25,9.87-1.06,1.48-3.42-1.96-6.03-4.34-4.56ZM865.56,176.7c-1.72-1.48,1.52-8.73-3.61-11.99-3.1-1.97-9.61-1.82-12.85-.17-4.53,2.31-3.95,8.05,1.7,6.97,1.47-.28,1.61-1.95,3.37-1.96,2.03-.01,2.37,1.69,2.16,3.4-13.55-4.05-13.84,13.32-1.09,8.73.83-.3,2.16-1.59,2.7-1.5s1.17,1.36,2.11,1.75c2.29.95,6.06.05,6.72-2.62.84-3.35-.68-2.16-1.21-2.62ZM868.55,182.06h7.2c2-2.36-.85-10.76,2.17-12.25l1.91.27v11.26l.72.72h7.2c.68-.42.66-.96.74-1.65.3-2.57.3-9.45-.01-12.01-.78-6.47-9.93-6.64-12.72-1.67-1.54-3.56-4.46-4.02-7.95-2.59.51,5.15-.59,11.26,0,16.28.08.7.06,1.23.74,1.65ZM909.41,165.93c-4.78-4.77-17.85-3.02-19,4.42-1.51,9.74,5.69,13.59,14.39,11.5,7-1.69,9.46-11.07,4.61-15.92ZM930.05,164.96c-4.33-3.85-19.96-1.51-16.39,7.02,1.4,3.35,9.32,3.01,9.33,4.08-2.96,2.54-5.41-1.36-8.17-.51-1.58.49-2.17,1.78-1.9,3.36.87,5.08,20.31,5.17,18.13-4.66-1.02-4.59-9.98-3.67-9.97-4.89,2.69-2.49,5.46,1.48,8.02.36,2.01-.88,2.64-3.24.93-4.76Z"/>
    <path class="cls-1" d="M575.58.62c102.9-6.37,171.08,105.35,116.39,193.37-50.33,81.01-170,79.17-217.6-3.47C427.71,109.52,482.38,6.39,575.58.62ZM591.99,129.84v49.35c-3.05-1.36-5.82-3.21-9.11-4.08-22.98-6.03-43.15,10.34-35.99,34.26-.38.38-3.08-1.45-3.83-1.68-8.45-2.61-18.7,4.39-14.97,13.51,4.62,11.28,23.64,7.94,22.64-4.64,11.06,13.46,36.83,13.24,46.73-1.48.72-1.07,2.86-5.78,3.15-5.96.66-.39,3.18-.28,4.59-.68,3.64-1.03,7.42-4.83,7.9-8.65.59-.53,2.45,2.27,3.13,2.86,15.33,13.19,38.98,6.23,44.5-13.51,6.43-23.01-4.56-51.61-32.85-44.79-5.01,1.21-8.68,4.13-12.38,7.52v-15.81c10.1,4.18,24.11,3.53,33.54-2.2,1.79-1.09,3.1-2.76,5.06-3.57,5.61,10.44,22.12,11.22,28.77,1.42,2.65-3.91,2.91-7.92,3.63-12.43h-6.72v-33.78c0-7.23-6.8-16.59-12.81-20.27-14.55-8.92-61.56-10.72-58.15,14.96.22,1.67,3.24,8.53,4.91,8.36.6-.06,8.4-4.93,10.62-5.7,7.01-2.44,23.82-4.15,24.71,6.23-15.43,3.42-33.98,4.46-44.11,18.22l-.06-26.06c-.56-2.81-1.55-5.87-4.29-7.21-7.31-.04-15.56-.85-22.78-.28-9.69.77-14.12,5.79-10.3,15.35h9.59c-4.27,8.24-14.92,10.92-23.14,7.06-11.64-5.46-12.24-26.84-6.85-36.77,7.5-13.83,29.23-10.33,30.76,5.81,25.11,7.68,32.64-21.58,11.66-33.79-16.22-9.45-41.79-7.83-57.68,1.73-38.4,23.11-23.98,100.64,27.99,90.71,9.46-1.81,13.97-5.74,20.4-12.2.4-.4.42-.69,1.16-.51.85,6.06,3.76,11.13,10.37,11.92,2.09.25,10.64-.47,11.46.53l1.68,3.83c-4.51-.25-8.77,1-12.95,2.4Z"/>
    <path class="cls-1" d="M206.76,161.93h-10.31c-1.82,0-4.68-4.35-5.76-5.74-8.28,10.07-26.31,9.66-33.26-1.77s-5.27-34.26,8.78-39.45c8.14-3.01,16.63-1.25,22.79,4.8l-.91-16.72c4.38-1.25,13.25-3.09,16.75.66.54.58,1.91,3.7,1.91,4.32v53.9ZM178.81,126.59c-6.68,1.37-6.55,14.72-4.43,19.53,3.1,7.02,11.09,4.97,12.5-1.89.46-2.23.54-9.48.18-11.74-.62-3.93-4.27-6.72-8.26-5.91Z"/>
    <path class="cls-1" d="M64.76,114.5v32.82c0,3.35,5.32,6.39,8.16,3.36.39-.42,1.91-3.5,1.91-3.84v-32.34h19.67v47.43h-10.31c-2.05,0-5.01-5.1-5.82-5.23-4.23,3.91-9.79,6.78-15.74,6.69-9.01-.15-17.54-7.17-17.54-16.55v-32.34h19.67Z"/>
    <path class="cls-1" d="M148.72,161.93h-19.19v-31.86c0-.59-1.37-3.82-1.94-4.29-1.17-.98-3.43-.95-4.81-.52-1.14.36-4.29,3.82-4.29,4.81v31.86h-19.67v-47.43h9.35c2.48,0,5.46,4.33,6.72,6.22,7.95-9.77,26.92-10.23,32.13,2.41.4.98,1.69,4.73,1.69,5.5v33.3Z"/>
    <path class="cls-1" d="M447.59,161.93h-19.67v-33.3c0-.69-1.7-3.04-2.41-3.34-1.98-.83-4.76-.06-6.23,1.42-.61.61-2.4,4.17-2.4,4.79v30.42h-19.19v-47.43h8.88c3.28,0,5.48,4.02,7.2,6.22,7.5-9.6,26.43-10.09,31.8,1.79.55,1.22,2.03,5.97,2.03,7.08v32.34Z"/>
    <path class="cls-1" d="M259.53,150.92h3.84c.34,8.66-6.79,14.6-15.14,11.53-2.62-.97-3.33-3.07-5.67-4.31-9.78,9.89-36.89,5.5-31.03-12.27,3.42-10.37,19.21-11.69,28.33-13.63.4-4.23-4.6-5.22-7.9-5.3-6.02-.13-11.23,2.45-16.52,4.79-9.64-16.66,13.33-19.18,24.66-18.17,9.22.82,19.44,7.24,19.44,17.48v19.88ZM239.87,141.81c-3.24.68-9.07,3-10.18,6.36-2.05,6.2,6,9.11,9.15,3.87.19-.32,1.03-2.2,1.03-2.32v-7.91Z"/>
    <path class="cls-1" d="M363.05,113.68c19.03-2.14,33.3,8.95,31.23,28.79-3.02,28.92-56.12,29.07-53.21-7.14.94-11.74,10.5-20.36,21.98-21.65ZM365.89,125.63c-6.49,1.49-6.12,18.84-2.86,23.26,2.95,4,8.66,2.71,10.44-1.81,2.33-5.92,2.63-23.8-7.57-21.45Z"/>
    <polygon class="cls-1" points="40.3 103.48 40.3 117.38 20.63 117.38 20.63 126.48 37.9 126.48 37.9 139.9 20.63 139.9 20.63 161.93 .96 161.93 .96 103.48 40.3 103.48"/>
    <path class="cls-1" d="M311.83,141.33c.19,17.02-13.87,24.3-29.36,20.94-23.36-5.07-24.01-39.62-1.6-47.31,6.68-2.29,16.23-2.08,22.65.9,11.63,5.4,10.78,19.85-3.68,17.81,1.03-9.07-10.74-11.28-14.58-3.79-1.84,3.6-1.91,12.57.09,16.1,4.14,7.32,16.91,3.84,15.93-4.65h10.55Z"/>
    <path class="cls-1" d="M336.29,114.5v47.43h-19.19v-47.43c6.19,1.67,13,1.67,19.19,0Z"/>
    <path class="cls-1" d="M323.7,91.15c7.32-1.06,14.68,2,14.8,10.25.13,8.97-8.66,13-16.5,10.36-10.36-3.5-9.24-19.02,1.7-20.61Z"/>
    <path class="cls-1" d="M383.79,91.99c-.76,8.92-8.04,16.28-16.67,18.08-3.42.71-8.69,2.08-8.31-2.93,5.78-2.44,6.66-9.7,5.32-15.16h19.67Z"/>
    <path class="cls-1" d="M877.8,71.03c4.11-.49,7.78,1.2,9.91,4.71,4.8,7.94,5.42,34.12-1.88,40.68-4,3.6-12.02,3.5-15.32-.99-5.45-7.4-5.26-32.7,0-40.18,1.69-2.4,4.37-3.88,7.29-4.22Z"/>
    <path class="cls-1" d="M902.26,176.19c-4.01,2.68-3.87-6.39-1.99-7.02l1.65.17c1.31,2.05,1.16,4.66.34,6.85Z"/>
    <polygon class="cls-1" points="856.32 175.35 855.87 177.53 853.44 177.74 853.89 175.56 856.32 175.35"/>
    <path class="cls-1" d="M625.45,160.61c14.66-2.46,14.56,30.64,2.27,31.52-10.42.75-10.52-14.72-9.82-21.81.42-4.23,2.97-8.94,7.55-9.71Z"/>
    <path class="cls-1" d="M571.7,186.95c10.87-2.5,10.65,17.34,7.44,23.23-3.02,5.54-9.58,4.24-11.63-1.52-1.66-4.66-2.19-20.24,4.19-21.71Z"/>
    <path class="cls-1" d="M649.08,103.01v10.78c0,1.57-2,6.16-3.15,7.4-3.58,3.87-12.1,3.43-13.44-2.33-2.33-10.03,9.23-13.4,16.58-15.84Z"/>
  </g>
</svg>