<?xml version="1.0" encoding="utf-8"?>
<!-- Generator: Adobe Illustrator 27.9.0, SVG Export Plug-In . SVG Version: 6.00 Build 0)  -->
<svg version="1.1" id="Layer_1" xmlns="http://www.w3.org/2000/svg" xmlns:xlink="http://www.w3.org/1999/xlink" x="0px" y="0px"
	 viewBox="0 0 23 22" style="enable-background:new 0 0 23 22;" xml:space="preserve">
<style type="text/css">
	.st0{fill:#BC5006;stroke:#DAB28D;stroke-miterlimit:10;}
</style>
<path class="st0" d="M3.6,21.4c-1.5-0.3-2.6-1-2.9-2.5c-0.3-1.4,0.1-4,0.5-5.5C2,10,3,7,5,4c0.6-0.8,1.4-2,2.2-2.5
	C8.1,0.9,9.6,1,10.6,1.4c1,0.4,1.6,1.7,2,2.7c1.9,4.1,2.9,7.8,3.9,12.2c0.2,1.1,0.5,3.5-0.4,4.5C14.8,22.1,4.9,21.7,3.6,21.4
	L3.6,21.4z"/>
<path class="st0" d="M12.4,21.3c-1.1-0.2-1.9-0.7-2.1-1.6c-0.2-0.9,0.1-2.6,0.4-3.6c0.6-2.2,1.4-4.2,2.8-6.1c0.4-0.6,1-1.3,1.6-1.7
	c0.6-0.4,1.8-0.4,2.5-0.1c0.7,0.3,1.2,1.1,1.5,1.7c1.4,2.7,2.1,5.1,2.8,8c0.2,0.7,0.4,2.3-0.3,2.9C20.6,21.8,13.4,21.5,12.4,21.3z"
	/>
</svg>
