<svg width="23" height="22" viewBox="0 0 23 22" fill="none" xmlns="http://www.w3.org/2000/svg">
<path d="M3.57412 21.3644C2.06243 21.0314 0.980973 20.3234 0.648519 18.8768C0.316064 17.4282 0.781501 14.8622 1.13351 13.4174C1.96074 10.0171 3.0285 6.99945 4.96261 4.0373C5.51409 3.19343 6.33936 2.05488 7.20374 1.50187C8.06813 0.948855 9.62871 0.960336 10.5694 1.38131C11.5589 1.82525 12.1593 3.08053 12.5973 4.0373C14.4649 8.11887 15.4956 11.8847 16.4558 16.2437C16.7041 17.3727 16.9603 19.7627 16.0509 20.731C14.7857 22.0781 4.92741 21.661 3.57608 21.3644H3.57412Z" fill="#DAB28D" stroke="#F6E9CD" stroke-miterlimit="10"/>
<path d="M12.4372 21.2875C11.3342 21.0693 10.5441 20.6082 10.3016 19.661C10.0591 18.7138 10.3994 17.0356 10.6556 16.0903C11.2599 13.8668 12.0382 11.892 13.4521 9.95553C13.855 9.40443 14.4573 8.65816 15.089 8.2965C15.7206 7.93484 16.8588 7.94249 17.5472 8.21804C18.2708 8.5089 18.7088 9.32981 19.0276 9.95553C20.3926 12.6249 21.1436 15.0876 21.8456 17.9388C22.0275 18.6774 22.2133 20.2408 21.5484 20.8742C20.6234 21.7544 13.4228 21.4827 12.4372 21.2875Z" fill="#DAB28D" stroke="#F6E9CD" stroke-miterlimit="10"/>
</svg>
