<svg width="24" height="30" viewBox="0 0 24 30" fill="none" xmlns="http://www.w3.org/2000/svg">
<path d="M11.0466 14.9729C11.281 18.2994 11.3384 21.6618 11.2188 25.0051C11.1853 25.9449 11.1375 26.8871 11.1806 27.8246C11.1925 28.0709 11.2116 28.3244 11.2858 28.5372C11.5034 29.1519 12.0343 29.1303 12.46 29.0299C12.6179 28.994 12.7972 28.9294 12.869 28.6975C12.9048 28.5827 12.9048 28.4488 12.9072 28.3196C12.924 23.9265 12.9431 19.5334 12.9598 15.1379" stroke="#F6E9CD"/>
<path d="M21.9827 24.5138C21.1074 25.6522 19.804 26.2644 18.4576 26.2716L12.3018 26.3003H11.704L5.54821 26.2716C4.20179 26.2644 2.89602 25.6522 2.02073 24.5138C0.913461 23.0718 0.604956 21.0725 1.607 18.9011C2.21923 17.5762 3.34802 16.5335 4.65857 16.237C3.81676 14.6395 3.35519 12.7 3.8048 10.9184C4.2544 9.13912 5.79214 7.64206 7.44946 7.79033C6.89463 6.16892 7.09074 4.25097 7.95646 2.80652C8.66913 1.61797 10.5536 0.651815 11.9981 0.713994H12.0029C13.4474 0.651815 15.3319 1.61797 16.0446 2.80652C16.9127 4.25097 17.1064 6.16892 16.5516 7.79033C18.2089 7.64206 19.7442 9.13673 20.1962 10.9184C20.6458 12.7 20.1867 14.6419 19.3448 16.237C20.653 16.5335 21.7842 17.5762 22.394 18.9011C23.3937 21.0749 23.0876 23.0718 21.9803 24.5138H21.9827Z" fill="#c7ce30" stroke="#F6E9CD" stroke-miterlimit="10"/>
</svg>
