<?xml version="1.0" encoding="utf-8"?>
<!-- Generator: Adobe Illustrator 27.9.0, SVG Export Plug-In . SVG Version: 6.00 Build 0)  -->
<svg version="1.1" id="Layer_1" xmlns="http://www.w3.org/2000/svg" xmlns:xlink="http://www.w3.org/1999/xlink" x="0px" y="0px"
	 viewBox="0 0 23 29" style="enable-background:new 0 0 23 29;" xml:space="preserve">
<style type="text/css">
	.st0{fill:#DAB28D;stroke:#BC5006;stroke-miterlimit:10;}
	.st1{fill:#DAB28D;}
	.st2{fill:none;stroke:#BC5006;stroke-miterlimit:10;}
</style>
<path class="st0" d="M5.6,28.8c0.3-10.3,0.8-18,1.1-21C6.8,7.2,7,5.1,8.4,3.3c1-1.4,2.1-2.2,3.9-2.2c1,0,3,0.9,3.7,2.5
	c0.5,1.3,0.7,2.6,0.9,4.7c0.4,4.6,0.3,9.2,0.3,13.7c0,1.6,0,3.9,0.2,6.7C13.4,28.7,9.5,28.7,5.6,28.8L5.6,28.8z"/>
<path class="st1" d="M6.9,16.6c-0.4,0.4-1.2,0.2-1.6-0.2c-0.4-0.4-0.5-1-0.7-1.6C4.3,13.4,4,12,3.7,10.6C3.6,10,3.3,9.2,2.6,9
	c-0.5-0.1-1,0.2-1.3,0.6c-0.7,0.9-0.8,2-0.8,3.1c0,1.2,0.1,2.3,0.3,3.5C1,17.6,1.4,19,2.5,19.8c0.7,0.5,1.6,0.6,2.4,0.7
	c0.7,0.1,1.5,0.2,2.2,0.3"/>
<path class="st2" d="M6.9,16.6c-0.4,0.4-1.2,0.2-1.6-0.2c-0.4-0.4-0.5-1-0.7-1.6C4.3,13.4,4,12,3.7,10.6C3.6,10,3.3,9.2,2.6,9
	c-0.5-0.1-1,0.2-1.3,0.6c-0.7,0.9-0.8,2-0.8,3.1c0,1.2,0.1,2.3,0.3,3.5C1,17.6,1.4,19,2.5,19.8c0.7,0.5,1.6,0.6,2.4,0.7
	c0.7,0.1,1.5,0.2,2.2,0.3"/>
<path class="st1" d="M15.9,12.2c0.4,0.4,1.2,0.2,1.6-0.2c0.4-0.4,0.5-1,0.7-1.6c0.3-1.4,0.6-2.8,0.9-4.1c0.2-0.7,0.4-1.5,1.1-1.6
	c0.5-0.1,1,0.2,1.3,0.6c0.7,0.9,0.8,2,0.8,3.1c0,1.2-0.1,2.3-0.3,3.5c-0.2,1.3-0.6,2.8-1.7,3.5c-0.7,0.5-1.6,0.6-2.4,0.7
	c-0.7,0.1-1.5,0.2-2.2,0.3"/>
<path class="st2" d="M15.9,12.2c0.4,0.4,1.2,0.2,1.6-0.2c0.4-0.4,0.5-1,0.7-1.6c0.3-1.4,0.6-2.8,0.9-4.1c0.2-0.7,0.4-1.5,1.1-1.6
	c0.5-0.1,1,0.2,1.3,0.6c0.7,0.9,0.8,2,0.8,3.1c0,1.2-0.1,2.3-0.3,3.5c-0.2,1.3-0.6,2.8-1.7,3.5c-0.7,0.5-1.6,0.6-2.4,0.7
	c-0.7,0.1-1.5,0.2-2.2,0.3"/>
</svg>
