<svg width="24" height="27" viewBox="0 0 24 27" fill="none" xmlns="http://www.w3.org/2000/svg">
<path d="M9.9585 13.0957C10.4122 16.3081 10.5225 19.5527 10.2896 22.7811C10.2242 23.6874 10.1322 24.5978 10.216 25.5041C10.2385 25.7418 10.2753 25.9854 10.4203 26.1929C10.8413 26.785 11.8713 26.7649 12.6949 26.6682C12.9994 26.6319 13.3468 26.5715 13.4878 26.346C13.5573 26.2352 13.5593 26.1063 13.5593 25.9814C13.592 21.7399 13.6267 17.4963 13.6594 13.2548" fill="#395300"/>
<path d="M9.9585 13.0957C10.4122 16.3081 10.5225 19.5527 10.2896 22.7811C10.2242 23.6874 10.1322 24.5978 10.216 25.5041C10.2385 25.7418 10.2753 25.9854 10.4203 26.1929C10.8413 26.785 11.8713 26.7649 12.6949 26.6682C12.9994 26.6319 13.3468 26.5715 13.4878 26.346C13.5573 26.2352 13.5593 26.1063 13.5593 25.9814C13.592 21.7399 13.6267 17.4963 13.6594 13.2548" stroke="#F6E9CD" stroke-miterlimit="10"/>
<path d="M12.4287 19.9328C12.9968 20.1 13.6406 20.0315 14.1535 19.7536C14.8831 19.3568 15.2816 18.6056 15.9069 18.0799C16.101 17.9168 16.3258 17.7718 16.5854 17.7295C16.8449 17.6872 17.1412 17.7698 17.2782 17.9752C17.4233 18.1947 17.3558 18.4767 17.2557 18.7184C16.6038 20.3075 14.7318 21.4031 12.8824 21.2762" fill="#395300"/>
<path d="M12.4287 19.9328C12.9968 20.1 13.6406 20.0315 14.1535 19.7536C14.8831 19.3568 15.2816 18.6056 15.9069 18.0799C16.101 17.9168 16.3258 17.7718 16.5854 17.7295C16.8449 17.6872 17.1412 17.7698 17.2782 17.9752C17.4233 18.1947 17.3558 18.4767 17.2557 18.7184C16.6038 20.3075 14.7318 21.4031 12.8824 21.2762" stroke="#F6E9CD" stroke-miterlimit="10" stroke-linecap="round"/>
<path d="M14.7116 17.3654C15.1224 17.2728 15.5454 17.2567 15.9643 17.311C17.2436 17.4802 19.0277 17.6474 20.1496 16.8116C21.4371 15.8529 22.0052 14.1833 21.5352 12.7432C21.4555 12.4995 21.3471 12.2478 21.4023 11.998C21.4534 11.7684 21.6333 11.5832 21.7906 11.3979C23.5297 9.3496 22.7961 5.99625 20.3233 4.69117C20.6237 2.7859 18.807 0.943072 16.6959 0.60673C14.5829 0.268374 12.3962 1.19885 10.9555 2.62679C8.89553 2.0528 6.50453 2.57846 4.97592 3.94397C3.44731 5.30947 2.85058 7.45239 3.48205 9.30127C1.8717 10.1008 1.01544 11.8953 1.32402 13.5227C1.6326 15.15 3.00385 16.5437 4.70821 17.168C6.41257 17.7924 8.39485 17.6856 10.0338 17.0331C11.1455 17.7763 12.6476 17.8729 13.9841 17.5426C14.2845 17.4681 14.5236 17.4117 14.7116 17.3694V17.3654Z" fill="#395300" stroke="#F6E9CD" stroke-miterlimit="10"/>
<path d="M17.1844 18.3256C17.1517 18.2692 17.0802 18.2471 17.023 18.2733C16.6388 18.4505 16.1545 18.3961 15.7784 18.1947C15.3677 17.9752 15.0734 17.6046 14.8527 17.2139C14.5768 16.7245 14.399 16.1727 14.4481 15.6208C14.4971 15.069 14.8016 14.5212 15.3125 14.2432C15.7396 14.0096 16.3118 14.0035 16.7246 14.2452C16.8513 14.3197 17.0066 14.2754 17.0823 14.1465C17.5298 13.3873 18.3697 12.8334 19.2914 12.7146C19.7655 12.6521 20.2784 12.7085 20.6626 12.9744C20.9794 13.1939 21.1756 13.5826 21.1224 13.9371C21.102 14.072 21.1756 14.2009 21.2982 14.2493C21.6476 14.3822 21.9848 14.5473 22.2566 14.791C22.5918 15.0911 22.8105 15.5342 22.7246 15.9592C22.6388 16.3861 22.2852 16.6963 21.8929 16.9521C21.7743 17.0286 21.7519 17.1998 21.8459 17.3086C21.9624 17.4435 22.0073 17.6469 21.9521 17.8181C21.8602 18.096 21.5925 18.2894 21.3268 18.4404C19.8575 19.2823 17.8282 19.3991 17.1844 18.3256Z" fill="#395300" stroke="#F6E9CD" stroke-miterlimit="10"/>
</svg>

